<svg width="30" height="30" viewBox="0 0 30 30" fill="none" xmlns="http://www.w3.org/2000/svg">
<g id="facebook">
<path id="Vector" d="M15 3.17236C8.46875 3.17236 3.125 8.50424 3.125 15.0711C3.125 21.0086 7.47125 25.9367 13.1475 26.8274V18.5149H10.1312V15.0711H13.1475V12.4467C13.1475 9.46611 14.9169 7.82736 17.6363 7.82736C18.9306 7.82736 20.2844 8.05299 20.2844 8.05299V10.9861H18.7881C17.3156 10.9861 16.8525 11.9005 16.8525 12.8386V15.0711H20.1537L19.6194 18.5149H16.8525V26.8274C19.6508 26.3854 22.1989 24.9577 24.0368 22.8018C25.8747 20.646 26.8814 17.9041 26.875 15.0711C26.875 8.50424 21.5312 3.17236 15 3.17236Z" fill="white"/>
</g>
</svg>
