<svg width="30" height="30" viewBox="0 0 30 30" fill="none" xmlns="http://www.w3.org/2000/svg">
<g id="google">
<path id="Vector" d="M26.1031 13.9313H15.2138V17.1731H22.9444C22.5525 21.6975 18.7881 23.6331 15.2256 23.6331C10.6775 23.6331 6.68752 20.0469 6.68752 15C6.68752 10.1312 10.4875 6.36687 15.2375 6.36687C18.9069 6.36687 21.0563 8.70625 21.0563 8.70625L23.3125 6.355C23.3125 6.355 20.415 3.125 15.1188 3.125C8.37377 3.125 3.16064 8.825 3.16064 15C3.16064 20.9969 8.06502 26.875 15.2969 26.875C21.65 26.875 26.2813 22.5169 26.2813 16.0806C26.2813 14.715 26.1031 13.9313 26.1031 13.9313Z" fill="white"/>
</g>
</svg>
