<svg width="48" height="47" viewBox="0 0 48 47" fill="none" xmlns="http://www.w3.org/2000/svg">
<g id="upload" clip-path="url(#clip0_855_1014)">
<path id="Vector" d="M20.1562 31.0599H27.8438C28.9008 31.0599 29.7656 30.195 29.7656 29.138V19.5286H32.8214C34.5319 19.5286 35.3967 17.453 34.1859 16.2422L25.3645 7.42079C24.615 6.67126 23.4042 6.67126 22.6547 7.42079L13.8333 16.2422C12.6225 17.453 13.4681 19.5286 15.1786 19.5286H18.2344V29.138C18.2344 30.195 19.0992 31.0599 20.1562 31.0599ZM12.4688 34.9036H35.5312C36.5883 34.9036 37.4531 35.7684 37.4531 36.8255C37.4531 37.8825 36.5883 38.7474 35.5312 38.7474H12.4688C11.4117 38.7474 10.5469 37.8825 10.5469 36.8255C10.5469 35.7684 11.4117 34.9036 12.4688 34.9036Z" fill="#006633"/>
</g>
<defs>
<clipPath id="clip0_855_1014">
<rect width="46.125" height="46.125" fill="white" transform="translate(0.9375 0.309814)"/>
</clipPath>
</defs>
</svg>
