<svg width="124" height="124" viewBox="0 0 124 124" fill="none" xmlns="http://www.w3.org/2000/svg">
<rect x="2.5" y="2.87231" width="119" height="119" rx="59.5" stroke="#B1DDC4" stroke-width="4" stroke-dasharray="20 10"/>
<g clip-path="url(#clip0_793_2446)">
<path d="M58.1562 70.0598H65.8438C66.9008 70.0598 67.7656 69.1949 67.7656 68.1379V58.5285H70.8214C72.5319 58.5285 73.3967 56.4529 72.1859 55.2421L63.3645 46.4207C62.615 45.6712 61.4042 45.6712 60.6547 46.4207L51.8333 55.2421C50.6225 56.4529 51.4681 58.5285 53.1786 58.5285H56.2344V68.1379C56.2344 69.1949 57.0992 70.0598 58.1562 70.0598ZM50.4688 73.9035H73.5312C74.5883 73.9035 75.4531 74.7684 75.4531 75.8254C75.4531 76.8824 74.5883 77.7473 73.5312 77.7473H50.4688C49.4117 77.7473 48.5469 76.8824 48.5469 75.8254C48.5469 74.7684 49.4117 73.9035 50.4688 73.9035Z" fill="#006633"/>
</g>
<defs>
<clipPath id="clip0_793_2446">
<rect width="46.125" height="46.125" fill="white" transform="translate(38.9375 39.3098)"/>
</clipPath>
</defs>
</svg>
