<svg width="14" height="14" viewBox="0 0 14 14" fill="none" xmlns="http://www.w3.org/2000/svg">
<g id="Group">
<g id="Group_2">
<path id="Vector" d="M6.99992 0.333557C3.31992 0.333557 0.333252 3.32022 0.333252 7.00022C0.333252 10.6802 3.31992 13.6669 6.99992 13.6669C10.6799 13.6669 13.6666 10.6802 13.6666 7.00022C13.6666 3.32022 10.6799 0.333557 6.99992 0.333557ZM7.66659 2.53356L8.56659 1.90022C9.77992 2.27356 10.8133 3.07356 11.4866 4.12689L11.2266 5.02022L10.3266 5.32689L7.66659 3.46689V2.53356ZM5.43325 1.90022L6.33325 2.53356V3.46689L3.67325 5.32689L2.77325 5.02022L2.51325 4.12689C3.18659 3.08022 4.21992 2.28022 5.43325 1.90022ZM3.71992 10.4069L2.95992 10.4736C2.15325 9.54022 1.66659 8.32689 1.66659 7.00022C1.66659 6.92022 1.67325 6.84689 1.67992 6.76689L2.34659 6.28022L3.26659 6.60022L4.23992 9.49356L3.71992 10.4069ZM8.66659 12.0602C8.13992 12.2336 7.57992 12.3336 6.99992 12.3336C6.41992 12.3336 5.85992 12.2336 5.33325 12.0602L4.87325 11.0669L5.29992 10.3336H8.70659L9.13325 11.0736L8.66659 12.0602ZM8.51325 9.00022H5.48659L4.58659 6.32022L6.99992 4.62689L9.41992 6.32022L8.51325 9.00022ZM11.0399 10.4736L10.2799 10.4069L9.75325 9.49356L10.7266 6.60022L11.6533 6.28689L12.3199 6.77356C12.3266 6.84689 12.3333 6.92022 12.3333 7.00022C12.3333 8.32689 11.8466 9.54022 11.0399 10.4736Z" fill="black"/>
</g>
</g>
</svg>
